<svg xmlns="http://www.w3.org/2000/svg" xmlns:xlink="http://www.w3.org/1999/xlink" width="1000" height="700" version="1.1">
<style type="text/css">
.l0{
  fill: #000000;
  stroke: #000000;
  stroke-linecap:round;
  stroke-linejoin:round;
  stroke-width: 3.43475;
}
.l1{
  fill: #00ccee;
  stroke: #00ccee;
  stroke-linecap:round;
  stroke-linejoin:round;
  stroke-width: 3.43475;
}
.l2{
  fill: #4f4f4f; fill-opacity: 0.2;
  stroke: #4f4f4f;
  stroke-linecap:round;
  stroke-linejoin:round;
  stroke-width: 3.43475;
}
.l3{
  fill: #cccccc; fill-opacity: 0.5;
  stroke: #cccccc;
  stroke-linecap:round;
  stroke-linejoin:round;
  stroke-width: 3.43475;
}
.l4{
  fill: #88dd00;
  stroke: #88dd00;
  stroke-linecap:round;
  stroke-linejoin:round;
  stroke-width: 3.43475;
}
.l5{
  fill: #bb2200;
  stroke: #bb2200;
  stroke-linecap:round;
  stroke-linejoin:round;
  stroke-width: 3.43475;
}
.l6{
  fill: #00ccee; fill-opacity: 0.5;
  stroke: #00ccee;
  stroke-linecap:round;
  stroke-linejoin:round;
  stroke-width: 3.43475;
}
.l7{
  fill: #ff0000; fill-opacity: 0.5;
  stroke: #ff0000;
  stroke-linecap:round;
  stroke-linejoin:round;
  stroke-width: 3.43475;
}
.l8{
  fill: #ffff00; fill-opacity: 0.5;
  stroke: #ffff00;
  stroke-linecap:round;
  stroke-linejoin:round;
  stroke-width: 3.43475;
}
.l9{
  fill: #ffffff; fill-opacity: 0.5;
  stroke: #ffffff;
  stroke-linecap:round;
  stroke-linejoin:round;
  stroke-width: 3.43475;
}
.l10{
  fill: #ff00ff;
  stroke: #ff00ff;
  stroke-linecap:round;
  stroke-linejoin:round;
  stroke-width: 3.43475;
}
.l11{
  fill: #00ff00; fill-opacity: 0.5;
  stroke: #00ff00;
  stroke-linecap:round;
  stroke-linejoin:round;
  stroke-width: 3.43475;
}
.l12{
  fill: #0000ff; fill-opacity: 0.5;
  stroke: #0000ff;
  stroke-linecap:round;
  stroke-linejoin:round;
  stroke-width: 3.43475;
}
.l13{
  fill: #aaaa00; fill-opacity: 0.5;
  stroke: #aaaa00;
  stroke-linecap:round;
  stroke-linejoin:round;
  stroke-width: 3.43475;
}
.l14{
  fill: #aaccaa; fill-opacity: 0.2;
  stroke: #aaccaa;
  stroke-linecap:round;
  stroke-linejoin:round;
  stroke-width: 3.43475;
}
.l15{
  fill: #ff7777; fill-opacity: 0.5;
  stroke: #ff7777;
  stroke-linecap:round;
  stroke-linejoin:round;
  stroke-width: 3.43475;
}
.l16{
  fill: #bfff81; fill-opacity: 0.5;
  stroke: #bfff81;
  stroke-linecap:round;
  stroke-linejoin:round;
  stroke-width: 3.43475;
}
.l17{
  fill: #00ffcc; fill-opacity: 0.2;
  stroke: #00ffcc;
  stroke-linecap:round;
  stroke-linejoin:round;
  stroke-width: 3.43475;
}
.l18{
  fill: #ce0097; fill-opacity: 0.5;
  stroke: #ce0097;
  stroke-linecap:round;
  stroke-linejoin:round;
  stroke-width: 3.43475;
}
.l19{
  fill: #d2d46b; fill-opacity: 0.2;
  stroke: #d2d46b;
  stroke-linecap:round;
  stroke-linejoin:round;
  stroke-width: 3.43475;
}
.l20{
  fill: #ef6158; fill-opacity: 0.2;
  stroke: #ef6158;
  stroke-linecap:round;
  stroke-linejoin:round;
  stroke-width: 3.43475;
}
.l21{
  fill: #fdb200; fill-opacity: 0.2;
  stroke: #fdb200;
  stroke-linecap:round;
  stroke-linejoin:round;
  stroke-width: 3.43475;
}
text {font-family: Sans-Serif;}
</style>
<rect class="l0" x="0" y="0" width="1000" height="700"/>
<text fill="#cccccc"  xml:space="preserve" font-size="49.6131" transform="translate(234.443, 312.36)" >@symname</text>
<text fill="#cccccc"  xml:space="preserve" font-size="33.0754" transform="translate(929.344, 182.852)" >@name</text>
<text fill="#cccccc"  xml:space="preserve" font-size="33.0754" transform="translate(102.459, 526.328)" >V[9:0]</text>
<text fill="#cccccc"  xml:space="preserve" font-size="33.0754" transform="translate(102.459, 335.508)" >VCM</text>
<text fill="#cccccc"  xml:space="preserve" font-size="33.0754" transform="translate(102.459, 208.295)" >IBIAS</text>
<text fill="#cccccc"  xml:space="preserve" font-size="33.0754" transform="translate(331.492, 176.491)" >AVDD</text>
<text fill="#cccccc"  xml:space="preserve" font-size="33.0754" transform="translate(102.459, 430.918)" >VIN</text>
<text fill="#cccccc"  xml:space="preserve" font-size="33.0754" transform="translate(614.721, 176.491)" >DVDD</text>
<text fill="#cccccc"  xml:space="preserve" font-size="33.0754" transform="translate(808.541, 367.311)" >VOUT</text>
<text fill="#cccccc"  xml:space="preserve" font-size="33.0754" transform="translate(343.492, 526.328)" >AVSS</text>
<text fill="#cccccc"  xml:space="preserve" font-size="33.0754" transform="translate(626.721, 526.328)" >DVSS</text>
<path class="l4" d="M86.5574 127.377L913.443 127.377"/>
<path class="l4" d="M86.5574 572.623L913.443 572.623"/>
<path class="l4" d="M86.5574 127.377L86.5574 572.623"/>
<path class="l4" d="M913.443 127.377L913.443 572.623"/>
<path class="l4" d="M22.9508 509.016L86.5574 509.016"/>
<path class="l4" d="M22.9508 318.197L86.5574 318.197"/>
<path class="l4" d="M22.9508 190.984L86.5574 190.984"/>
<path class="l4" d="M22.9508 413.607L86.5574 413.607"/>
<path class="l4" d="M913.443 350L977.049 350"/>
<path class="l5" d="M15 501.066L30.9016 501.066L30.9016 516.967L15 516.967L15 501.066z"/>
<path class="l5" d="M15 310.246L30.9016 310.246L30.9016 326.148L15 326.148L15 310.246z"/>
<path class="l5" d="M15 183.033L30.9016 183.033L30.9016 198.934L15 198.934L15 183.033z"/>
<path class="l5" d="M364.836 55.8197L380.738 55.8197L380.738 71.7213L364.836 71.7213L364.836 55.8197z"/>
<path class="l5" d="M15 405.656L30.9016 405.656L30.9016 421.557L15 421.557L15 405.656z"/>
<path class="l5" d="M651.066 55.8197L666.967 55.8197L666.967 71.7213L651.066 71.7213L651.066 55.8197z"/>
<path class="l5" d="M969.098 342.049L985 342.049L985 357.951L969.098 357.951L969.098 342.049z"/>
<path class="l5" d="M364.836 628.279L380.738 628.279L380.738 644.18L364.836 644.18L364.836 628.279z"/>
<path class="l5" d="M651.066 628.279L666.967 628.279L666.967 644.18L651.066 644.18L651.066 628.279z"/>
<path class="l7" d="M372.787 63.7705L372.787 127.377"/>
<path class="l7" d="M659.016 63.7705L659.016 127.377"/>
<path class="l7" d="M372.787 572.623L372.787 636.23"/>
<path class="l7" d="M659.016 572.623L659.016 636.23"/>
</svg>
