<svg xmlns="http://www.w3.org/2000/svg" xmlns:xlink="http://www.w3.org/1999/xlink" width="1000" height="700" version="1.1">
<style type="text/css">
.l0{
  fill: #000000;
  stroke: #000000;
  stroke-linecap:round;
  stroke-linejoin:round;
  stroke-width: 0.796749;
}
.l1{
  fill: #00ccee;
  stroke: #00ccee;
  stroke-linecap:round;
  stroke-linejoin:round;
  stroke-width: 0.796749;
}
.l2{
  fill: #4f4f4f; fill-opacity: 0.2;
  stroke: #4f4f4f;
  stroke-linecap:round;
  stroke-linejoin:round;
  stroke-width: 0.796749;
}
.l3{
  fill: #cccccc; fill-opacity: 0.5;
  stroke: #cccccc;
  stroke-linecap:round;
  stroke-linejoin:round;
  stroke-width: 0.796749;
}
.l4{
  fill: #88dd00;
  stroke: #88dd00;
  stroke-linecap:round;
  stroke-linejoin:round;
  stroke-width: 0.796749;
}
.l5{
  fill: #bb2200;
  stroke: #bb2200;
  stroke-linecap:round;
  stroke-linejoin:round;
  stroke-width: 0.796749;
}
.l6{
  fill: #00ccee; fill-opacity: 0.5;
  stroke: #00ccee;
  stroke-linecap:round;
  stroke-linejoin:round;
  stroke-width: 0.796749;
}
.l7{
  fill: #ff0000; fill-opacity: 0.5;
  stroke: #ff0000;
  stroke-linecap:round;
  stroke-linejoin:round;
  stroke-width: 0.796749;
}
.l8{
  fill: #ffff00; fill-opacity: 0.5;
  stroke: #ffff00;
  stroke-linecap:round;
  stroke-linejoin:round;
  stroke-width: 0.796749;
}
.l9{
  fill: #ffffff; fill-opacity: 0.5;
  stroke: #ffffff;
  stroke-linecap:round;
  stroke-linejoin:round;
  stroke-width: 0.796749;
}
.l10{
  fill: #ff00ff;
  stroke: #ff00ff;
  stroke-linecap:round;
  stroke-linejoin:round;
  stroke-width: 0.796749;
}
.l11{
  fill: #00ff00; fill-opacity: 0.5;
  stroke: #00ff00;
  stroke-linecap:round;
  stroke-linejoin:round;
  stroke-width: 0.796749;
}
.l12{
  fill: #0000ff; fill-opacity: 0.5;
  stroke: #0000ff;
  stroke-linecap:round;
  stroke-linejoin:round;
  stroke-width: 0.796749;
}
.l13{
  fill: #aaaa00; fill-opacity: 0.5;
  stroke: #aaaa00;
  stroke-linecap:round;
  stroke-linejoin:round;
  stroke-width: 0.796749;
}
.l14{
  fill: #aaccaa; fill-opacity: 0.2;
  stroke: #aaccaa;
  stroke-linecap:round;
  stroke-linejoin:round;
  stroke-width: 0.796749;
}
.l15{
  fill: #ff7777; fill-opacity: 0.5;
  stroke: #ff7777;
  stroke-linecap:round;
  stroke-linejoin:round;
  stroke-width: 0.796749;
}
.l16{
  fill: #bfff81; fill-opacity: 0.5;
  stroke: #bfff81;
  stroke-linecap:round;
  stroke-linejoin:round;
  stroke-width: 0.796749;
}
.l17{
  fill: #00ffcc; fill-opacity: 0.2;
  stroke: #00ffcc;
  stroke-linecap:round;
  stroke-linejoin:round;
  stroke-width: 0.796749;
}
.l18{
  fill: #ce0097; fill-opacity: 0.5;
  stroke: #ce0097;
  stroke-linecap:round;
  stroke-linejoin:round;
  stroke-width: 0.796749;
}
.l19{
  fill: #d2d46b; fill-opacity: 0.2;
  stroke: #d2d46b;
  stroke-linecap:round;
  stroke-linejoin:round;
  stroke-width: 0.796749;
}
.l20{
  fill: #ef6158; fill-opacity: 0.2;
  stroke: #ef6158;
  stroke-linecap:round;
  stroke-linejoin:round;
  stroke-width: 0.796749;
}
.l21{
  fill: #fdb200; fill-opacity: 0.2;
  stroke: #fdb200;
  stroke-linecap:round;
  stroke-linejoin:round;
  stroke-width: 0.796749;
}
text {font-family: Sans-Serif;}
</style>
<rect class="l0" x="0" y="0" width="1000" height="700"/>
<text fill="#cccccc"  xml:space="preserve" font-size="15.3448" transform="translate(309.239, 95.6759)" >Programmable-Gain Instrumentation Amplifier</text>
<text fill="#cccccc"  xml:space="preserve" font-size="11.5086" transform="translate(183.825, 387.285)" >Tail current bias</text>
<text fill="#cccccc"  xml:space="preserve" font-size="11.5086" transform="translate(183.825, 400.485)" >voltage generator</text>
<text fill="#cccccc"  xml:space="preserve" font-size="11.5086" transform="translate(493.672, 387.285)" >Fixed gain stage</text>
<text fill="#cccccc"  xml:space="preserve" font-size="11.5086" transform="translate(722.368, 416.794)" >Variable gain stage</text>
<text fill="#cccccc"  xml:space="preserve" font-size="11.5086" transform="translate(169.07, 180.72)" >bias current 100nA nominal</text>
<text fill="#00ccee"  xml:space="preserve" font-size="12.6595" transform="translate(491.025, 197.903)" >AVDD</text>
<text fill="#00ccee"  xml:space="preserve" font-size="12.6595" transform="translate(770.363, 205.28)" >DVDD</text>
<text fill="#00ccee"  xml:space="preserve" font-size="12.6595" transform="translate(868.07, 345.449)" >VCM</text>
<text fill="#00ccee"  xml:space="preserve" font-size="12.6595" transform="translate(690.212, 205.28)" >AVDD</text>
<text fill="#00ccee"  xml:space="preserve" font-size="12.6595" transform="translate(431.629, 301.185)" >VCM</text>
<text fill="#00ccee"  xml:space="preserve" font-size="12.6595" transform="translate(618.062, 315.94)" >VO1</text>
<text fill="#00ccee"  xml:space="preserve" font-size="12.6595" transform="translate(498.025, 345.449)" >VCM</text>
<text fill="#00ccee"  xml:space="preserve" font-size="12.6595" transform="translate(314.772, 279.053)" >VBIAS</text>
<text fill="#00ccee"  xml:space="preserve" font-size="12.6595" transform="translate(845.938, 234.79)" >VBIAS</text>
<text fill="#00ccee"  xml:space="preserve" font-size="12.6595" transform="translate(565.6, 227.412)" >VBIAS</text>
<text fill="#00ccee"  xml:space="preserve" font-size="12.6595" transform="translate(199.933, 345.449)" >AVSS</text>
<text fill="#00ccee"  xml:space="preserve" font-size="12.6595" transform="translate(565.6, 345.449)" >AVSS</text>
<text fill="#00ccee"  xml:space="preserve" font-size="12.6595" transform="translate(664.703, 227.412)" >AVSS</text>
<text fill="#00ccee"  xml:space="preserve" font-size="12.6595" transform="translate(744.853, 227.412)" >DVSS</text>
<text fill="#00ccee"  xml:space="preserve" font-size="12.6595" transform="translate(24.9557, 190.065)" >VCM</text>
<text fill="#00ccee"  xml:space="preserve" font-size="12.6595" transform="translate(17.1488, 263.377)" >AVDD</text>
<text fill="#00ccee"  xml:space="preserve" font-size="12.6595" transform="translate(951.064, 285.97)" >VOUT</text>
<text fill="#00ccee"  xml:space="preserve" font-size="12.6595" transform="translate(168.502, 204.819)" >IBIAS</text>
<text fill="#00ccee"  xml:space="preserve" font-size="12.6595" transform="translate(16.1488, 278.131)" >DVDD</text>
<text fill="#00ccee"  xml:space="preserve" font-size="12.6595" transform="translate(21.1488, 292.886)" >AVSS</text>
<text fill="#00ccee"  xml:space="preserve" font-size="12.6595" transform="translate(20.1488, 307.64)" >DVSS</text>
<text fill="#00ccee"  xml:space="preserve" font-size="12.6595" transform="translate(86.0757, 264.299)" >AVDD</text>
<text fill="#00ccee"  xml:space="preserve" font-size="12.6595" transform="translate(86.0757, 279.053)" >DVDD</text>
<text fill="#00ccee"  xml:space="preserve" font-size="12.6595" transform="translate(86.0757, 293.808)" >AVSS</text>
<text fill="#00ccee"  xml:space="preserve" font-size="12.6595" transform="translate(86.0757, 308.563)" >DVSS</text>
<text fill="#00ccee"  xml:space="preserve" font-size="12.6595" transform="translate(93.453, 190.526)" >VCM</text>
<text fill="#00ccee"  xml:space="preserve" font-size="12.6595" transform="translate(18.9557, 167.933)" >V[9:0]</text>
<text fill="#00ccee"  xml:space="preserve" font-size="12.6595" transform="translate(93.453, 168.394)" >V[9:0]</text>
<text fill="#00ccee"  xml:space="preserve" font-size="12.6595" transform="translate(406.198, 271.215)" >VIN</text>
<text fill="#00ccee"  xml:space="preserve" font-size="12.6595" transform="translate(705.737, 375.859) rotate(270)" >V[0]</text>
<text fill="#00ccee"  xml:space="preserve" font-size="12.6595" transform="translate(720.491, 375.859) rotate(270)" >V[1]</text>
<text fill="#00ccee"  xml:space="preserve" font-size="12.6595" transform="translate(735.246, 375.859) rotate(270)" >V[2]</text>
<text fill="#00ccee"  xml:space="preserve" font-size="12.6595" transform="translate(750.001, 375.859) rotate(270)" >V[3]</text>
<text fill="#00ccee"  xml:space="preserve" font-size="12.6595" transform="translate(764.755, 375.859) rotate(270)" >V[4]</text>
<text fill="#00ccee"  xml:space="preserve" font-size="12.6595" transform="translate(779.51, 375.859) rotate(270)" >V[5]</text>
<text fill="#00ccee"  xml:space="preserve" font-size="12.6595" transform="translate(794.264, 375.859) rotate(270)" >V[6]</text>
<text fill="#00ccee"  xml:space="preserve" font-size="12.6595" transform="translate(809.019, 375.859) rotate(270)" >V[7]</text>
<text fill="#00ccee"  xml:space="preserve" font-size="12.6595" transform="translate(823.774, 375.859) rotate(270)" >V[8]</text>
<text fill="#00ccee"  xml:space="preserve" font-size="12.6595" transform="translate(838.528, 375.859) rotate(270)" >V[9]</text>
<text fill="#cccccc"  xml:space="preserve" font-size="11.5086" transform="translate(727.163, 286.953)" >Parallel_10B_Block2</text>
<text fill="#cccccc"  xml:space="preserve" font-size="7.67239" transform="translate(851.471, 256.912)" >x1</text>
<text fill="#cccccc"  xml:space="preserve" font-size="7.67239" transform="translate(782.452, 307.078)" >V6</text>
<text fill="#cccccc"  xml:space="preserve" font-size="7.67239" transform="translate(768.698, 307.078)" >V5</text>
<text fill="#cccccc"  xml:space="preserve" font-size="7.67239" transform="translate(812.962, 307.078)" >V8</text>
<text fill="#cccccc"  xml:space="preserve" font-size="7.67239" transform="translate(827.716, 307.078)" >V9</text>
<text fill="#cccccc"  xml:space="preserve" font-size="7.67239" transform="translate(797.207, 307.078)" >V7</text>
<text fill="#cccccc"  xml:space="preserve" font-size="7.67239" transform="translate(688.925, 284.946)" >VO1</text>
<text fill="#cccccc"  xml:space="preserve" font-size="7.67239" transform="translate(798.962, 270.191)" >DVDD</text>
<text fill="#cccccc"  xml:space="preserve" font-size="7.67239" transform="translate(718.811, 270.191)" >AVDD</text>
<text fill="#cccccc"  xml:space="preserve" font-size="7.67239" transform="translate(851.603, 284.946)" >VOUT</text>
<text fill="#cccccc"  xml:space="preserve" font-size="7.67239" transform="translate(752.943, 307.078)" >V4</text>
<text fill="#cccccc"  xml:space="preserve" font-size="7.67239" transform="translate(739.189, 307.078)" >V3</text>
<text fill="#cccccc"  xml:space="preserve" font-size="7.67239" transform="translate(724.434, 307.078)" >V2</text>
<text fill="#cccccc"  xml:space="preserve" font-size="7.67239" transform="translate(709.679, 307.078)" >V1</text>
<text fill="#cccccc"  xml:space="preserve" font-size="7.67239" transform="translate(693.925, 307.078)" >V0</text>
<text fill="#cccccc"  xml:space="preserve" font-size="7.67239" transform="translate(849.225, 307.078)" >VCM</text>
<text fill="#cccccc"  xml:space="preserve" font-size="7.67239" transform="translate(693.302, 270.191)" >AVSS</text>
<text fill="#cccccc"  xml:space="preserve" font-size="7.67239" transform="translate(773.452, 270.191)" >DVSS</text>
<text fill="#cccccc"  xml:space="preserve" font-size="7.67239" transform="translate(829.471, 270.191)" >VBIAS</text>
<text fill="#cccccc"  xml:space="preserve" font-size="15.3448" transform="translate(327.682, 527.248)" >         /home/leo/projects/sky130_pa_ip__instramp/xschem/sky130_pa_ip__instramp.sch</text>
<text fill="#cccccc"  xml:space="preserve" font-size="15.3448" transform="translate(327.682, 505.116)" >Phil Allen</text>
<text fill="#cccccc"  xml:space="preserve" font-size="15.3448" transform="translate(754.801, 505.116)" >2024-11-05  17:10:29</text>
<text fill="#cccccc"  xml:space="preserve" font-size="38.362" transform="translate(158.004, 526.016)" >SCHEM</text>
<text fill="#cccccc"  xml:space="preserve" font-size="11.5086" transform="translate(485.557, 286.953)" >Input_Stage_v1</text>
<text fill="#cccccc"  xml:space="preserve" font-size="7.67239" transform="translate(571.133, 249.535)" >x2</text>
<text fill="#cccccc"  xml:space="preserve" font-size="7.67239" transform="translate(512.247, 262.814)" >AVDD</text>
<text fill="#cccccc"  xml:space="preserve" font-size="7.67239" transform="translate(478.36, 270.191)" >VINP</text>
<text fill="#cccccc"  xml:space="preserve" font-size="7.67239" transform="translate(553.511, 284.946)" >VOUT1</text>
<text fill="#cccccc"  xml:space="preserve" font-size="7.67239" transform="translate(477.36, 299.7)" >VINN</text>
<text fill="#cccccc"  xml:space="preserve" font-size="7.67239" transform="translate(522.247, 307.078)" >CM</text>
<text fill="#cccccc"  xml:space="preserve" font-size="7.67239" transform="translate(553.133, 307.078)" >AVSS</text>
<text fill="#cccccc"  xml:space="preserve" font-size="7.67239" transform="translate(549.133, 262.814)" >VBIAS</text>
<text fill="#cccccc"  xml:space="preserve" font-size="7.67239" transform="translate(541.624, 207.668)" >VI2</text>
<text fill="#cccccc"  xml:space="preserve" font-size="11.5086" transform="translate(192.309, 264.822)" >vbias_gen_pga</text>
<text fill="#cccccc"  xml:space="preserve" font-size="7.67239" transform="translate(246.532, 227.403)" >x3</text>
<text fill="#cccccc"  xml:space="preserve" font-size="7.67239" transform="translate(246.664, 277.568)" >VBIAS</text>
<text fill="#cccccc"  xml:space="preserve" font-size="7.67239" transform="translate(226.532, 248.059)" >IBIAS</text>
<text fill="#cccccc"  xml:space="preserve" font-size="7.67239" transform="translate(226.155, 299.7)" >VSS</text>
<path class="l4" d="M685.482 258.798L877.291 258.798"/>
<path class="l4" d="M685.482 310.439L877.291 310.439"/>
<path class="l4" d="M685.482 258.798L685.482 310.439"/>
<path class="l4" d="M877.291 258.798L877.291 310.439"/>
<path class="l4" d="M478.917 251.421L582.199 251.421"/>
<path class="l4" d="M478.917 310.439L582.199 310.439"/>
<path class="l4" d="M478.917 251.421L478.917 310.439"/>
<path class="l4" d="M582.199 251.421L582.199 310.439"/>
<path class="l4" d="M530.558 192.402L530.558 236.666"/>
<path class="l4" d="M525.025 214.534L530.558 221.912"/>
<path class="l4" d="M530.558 221.912L536.091 214.534"/>
<path class="l4" d="M191.202 236.666L191.202 303.062"/>
<path class="l4" d="M191.202 303.062L279.73 303.062"/>
<path class="l4" d="M279.73 236.666L279.73 303.062"/>
<path class="l4" d="M191.202 236.666L279.73 236.666"/>
<path class="l5" d="M786.919 323.349L790.608 323.349L790.608 327.038L786.919 327.038L786.919 323.349z"/>
<path class="l5" d="M772.165 323.349L775.853 323.349L775.853 327.038L772.165 327.038L772.165 323.349z"/>
<path class="l5" d="M816.429 323.349L820.117 323.349L820.117 327.038L816.429 327.038L816.429 323.349z"/>
<path class="l5" d="M831.183 323.349L834.872 323.349L834.872 327.038L831.183 327.038L831.183 323.349z"/>
<path class="l5" d="M801.674 323.349L805.363 323.349L805.363 327.038L801.674 327.038L801.674 323.349z"/>
<path class="l5" d="M668.883 279.086L672.571 279.086L672.571 282.774L668.883 282.774L668.883 279.086z"/>
<path class="l5" d="M809.051 242.199L812.74 242.199L812.74 245.888L809.051 245.888L809.051 242.199z"/>
<path class="l5" d="M727.901 242.199L731.59 242.199L731.59 245.888L727.901 245.888L727.901 242.199z"/>
<path class="l5" d="M890.202 279.086L893.89 279.086L893.89 282.774L890.202 282.774L890.202 279.086z"/>
<path class="l5" d="M757.41 323.349L761.099 323.349L761.099 327.038L757.41 327.038L757.41 323.349z"/>
<path class="l5" d="M742.656 323.349L746.344 323.349L746.344 327.038L742.656 327.038L742.656 323.349z"/>
<path class="l5" d="M727.901 323.349L731.59 323.349L731.59 327.038L727.901 327.038L727.901 323.349z"/>
<path class="l5" d="M713.146 323.349L716.835 323.349L716.835 327.038L713.146 327.038L713.146 323.349z"/>
<path class="l5" d="M698.392 323.349L702.08 323.349L702.08 327.038L698.392 327.038L698.392 323.349z"/>
<path class="l5" d="M860.692 323.349L864.381 323.349L864.381 327.038L860.692 327.038L860.692 323.349z"/>
<path class="l5" d="M779.542 242.199L783.231 242.199L783.231 245.888L779.542 245.888L779.542 242.199z"/>
<path class="l5" d="M698.392 242.199L702.08 242.199L702.08 245.888L698.392 245.888L698.392 242.199z"/>
<path class="l5" d="M838.561 242.199L842.249 242.199L842.249 245.888L838.561 245.888L838.561 242.199z"/>
<path class="l5" d="M146.938 498.56L146.708 498.791L146.477 499.022L146.247 499.252L146.016 499.483L145.786 499.713L145.555 499.944L145.325 500.174L145.094 500.405L144.864 500.635L144.633 500.866L144.403 501.096L144.172 501.327L143.941 501.557L143.711 501.788L143.48 502.019L143.25 502.249L143.019 502.48L142.789 502.71L142.558 502.941L142.328 503.171L142.097 503.402L141.867 503.632L141.636 503.863L141.405 504.093L141.175 504.324L140.944 504.554L140.714 504.785L140.483 505.016L140.253 505.246L140.022 505.477L139.792 505.707L139.561 505.938L139.561 505.938L139.338 506.168L139.129 506.399L138.934 506.629L138.754 506.86L138.589 507.09L138.437 507.321L138.3 507.552L138.178 507.782L138.07 508.013L137.976 508.243L137.897 508.474L137.832 508.704L137.782 508.935L137.746 509.165L137.724 509.396L137.717 509.626L137.724 509.857L137.746 510.087L137.782 510.318L137.832 510.549L137.897 510.779L137.976 511.01L138.07 511.24L138.178 511.471L138.3 511.701L138.437 511.932L138.589 512.162L138.754 512.393L138.934 512.623L139.129 512.854L139.338 513.084L139.561 513.315L139.561 513.315L139.793 513.546L140.026 513.78L140.261 514.015L140.498 514.252L140.736 514.49L140.977 514.731L141.219 514.973L141.463 515.217L141.709 515.463L141.957 515.71L142.206 515.96L142.457 516.211L142.71 516.464L142.965 516.719L143.222 516.976L143.48 517.234L143.741 517.494L144.003 517.757L144.267 518.02L144.532 518.286L144.8 518.554L145.069 518.823L145.34 519.094L145.613 519.367L145.888 519.641L146.164 519.918L146.442 520.196L146.722 520.476L147.004 520.758L147.288 521.042L147.573 521.327L147.861 521.614L147.861 521.614L148.147 521.901L148.43 522.184L148.709 522.463L148.985 522.738L149.256 523.01L149.525 523.279L149.79 523.543L150.051 523.805L150.308 524.062L150.562 524.316L150.813 524.566L151.059 524.813L151.303 525.056L151.542 525.296L151.778 525.532L152.01 525.764L152.239 525.993L152.464 526.218L152.686 526.44L152.904 526.658L153.118 526.872L153.329 527.083L153.536 527.29L153.739 527.493L153.939 527.693L154.136 527.89L154.328 528.082L154.518 528.271L154.703 528.457L154.885 528.639L155.063 528.817L155.238 528.992L155.238 528.992L155.405 529.162L155.562 529.327L155.708 529.486L155.843 529.64L155.967 529.789L156.081 529.932L156.184 530.07L156.275 530.202L156.356 530.329L156.427 530.451L156.486 530.567L156.535 530.678L156.573 530.783L156.6 530.883L156.616 530.978L156.621 531.067L156.616 531.15L156.6 531.229L156.573 531.302L156.535 531.369L156.486 531.431L156.427 531.488L156.356 531.539L156.275 531.585L156.184 531.626L156.081 531.661L155.967 531.691L155.843 531.715L155.708 531.734L155.562 531.747L155.405 531.756L155.238 531.758L155.238 531.758L155.065 531.758L154.892 531.758L154.719 531.758L154.546 531.758L154.373 531.758L154.201 531.758L154.028 531.758L153.855 531.758L153.682 531.758L153.509 531.758L153.336 531.758L153.163 531.758L152.99 531.758L152.817 531.758L152.644 531.758L152.471 531.758L152.299 531.758L152.126 531.758L151.953 531.758L151.78 531.758L151.607 531.758L151.434 531.758L151.261 531.758L151.088 531.758L150.915 531.758L150.742 531.758L150.569 531.758L150.397 531.758L150.224 531.758L150.051 531.758L149.878 531.758L149.705 531.758L149.705 531.758L149.533 531.758L149.363 531.758L149.194 531.758L149.028 531.758L148.863 531.758L148.7 531.758L148.539 531.758L148.379 531.758L148.222 531.758L148.066 531.758L147.912 531.758L147.76 531.758L147.609 531.758L147.461 531.758L147.314 531.758L147.169 531.758L147.026 531.758L146.884 531.758L146.745 531.758L146.607 531.758L146.471 531.758L146.337 531.758L146.205 531.758L146.074 531.758L145.945 531.758L145.818 531.758L145.693 531.758L145.57 531.758L145.448 531.758L145.328 531.758L145.21 531.758L145.094 531.758L145.094 531.758L144.979 531.756L144.864 531.751L144.748 531.742L144.633 531.729L144.518 531.713L144.403 531.693L144.287 531.67L144.172 531.643L144.057 531.612L143.941 531.578L143.826 531.54L143.711 531.499L143.596 531.454L143.48 531.405L143.365 531.353L143.25 531.297L143.135 531.238L143.019 531.175L142.904 531.108L142.789 531.038L142.673 530.964L142.558 530.887L142.443 530.806L142.328 530.721L142.212 530.633L142.097 530.541L141.982 530.445L141.867 530.346L141.751 530.244L141.636 530.137L141.521 530.027L141.405 529.914L141.405 529.914L141.29 529.799L141.175 529.683L141.06 529.568L140.944 529.453L140.829 529.338L140.714 529.222L140.599 529.107L140.483 528.992L140.368 528.877L140.253 528.761L140.138 528.646L140.022 528.531L139.907 528.415L139.792 528.3L139.676 528.185L139.561 528.07L139.446 527.954L139.331 527.839L139.215 527.724L139.1 527.609L138.985 527.493L138.87 527.378L138.754 527.263L138.639 527.147L138.524 527.032L138.408 526.917L138.293 526.802L138.178 526.686L138.063 526.571L137.947 526.456L137.832 526.341L137.717 526.225L137.717 526.225L137.6 526.108L137.479 525.988L137.355 525.863L137.227 525.735L137.095 525.604L136.96 525.469L136.822 525.33L136.679 525.188L136.534 525.042L136.384 524.892L136.231 524.739L136.074 524.583L135.914 524.422L135.75 524.259L135.583 524.091L135.411 523.92L135.237 523.745L135.058 523.567L134.877 523.385L134.691 523.199L134.502 523.01L134.309 522.818L134.113 522.621L133.913 522.421L133.709 522.218L133.502 522.011L133.292 521.8L133.077 521.586L132.859 521.368L132.638 521.146L132.413 520.921L132.184 520.692L132.184 520.692L131.953 520.469L131.723 520.26L131.492 520.066L131.262 519.885L131.031 519.72L130.801 519.568L130.57 519.432L130.34 519.309L130.109 519.201L129.878 519.107L129.648 519.028L129.417 518.963L129.187 518.913L128.956 518.877L128.726 518.855L128.495 518.848L128.265 518.855L128.034 518.877L127.804 518.913L127.573 518.963L127.343 519.028L127.112 519.107L126.881 519.201L126.651 519.309L126.42 519.432L126.19 519.568L125.959 519.72L125.729 519.885L125.498 520.066L125.268 520.26L125.037 520.469L124.807 520.692L124.807 520.692L124.578 520.921L124.353 521.146L124.131 521.368L123.913 521.586L123.699 521.8L123.488 522.011L123.281 522.218L123.078 522.421L122.878 522.621L122.681 522.818L122.489 523.01L122.299 523.199L122.114 523.385L121.932 523.567L121.754 523.745L121.579 523.92L121.408 524.091L121.24 524.259L121.076 524.422L120.916 524.583L120.759 524.739L120.606 524.892L120.457 525.042L120.311 525.188L120.169 525.33L120.03 525.469L119.895 525.604L119.763 525.735L119.636 525.863L119.511 525.988L119.391 526.108L119.274 526.225L119.274 526.225L119.158 526.341L119.043 526.456L118.928 526.571L118.813 526.686L118.697 526.802L118.582 526.917L118.467 527.032L118.351 527.147L118.236 527.263L118.121 527.378L118.006 527.493L117.89 527.609L117.775 527.724L117.66 527.839L117.545 527.954L117.429 528.07L117.314 528.185L117.199 528.3L117.083 528.415L116.968 528.531L116.853 528.646L116.738 528.761L116.622 528.877L116.507 528.992L116.392 529.107L116.277 529.222L116.161 529.338L116.046 529.453L115.931 529.568L115.815 529.683L115.7 529.799L115.585 529.914L115.585 529.914L115.47 530.027L115.354 530.137L115.239 530.244L115.124 530.346L115.009 530.445L114.893 530.541L114.778 530.633L114.663 530.721L114.548 530.806L114.432 530.887L114.317 530.964L114.202 531.038L114.086 531.108L113.971 531.175L113.856 531.238L113.741 531.297L113.625 531.353L113.51 531.405L113.395 531.454L113.28 531.499L113.164 531.54L113.049 531.578L112.934 531.612L112.818 531.643L112.703 531.67L112.588 531.693L112.473 531.713L112.357 531.729L112.242 531.742L112.127 531.751L112.012 531.756L111.896 531.758L111.896 531.758L111.78 531.758L111.662 531.758L111.542 531.758L111.421 531.758L111.297 531.758L111.172 531.758L111.045 531.758L110.916 531.758L110.786 531.758L110.654 531.758L110.519 531.758L110.383 531.758L110.246 531.758L110.106 531.758L109.965 531.758L109.821 531.758L109.676 531.758L109.53 531.758L109.381 531.758L109.231 531.758L109.078 531.758L108.924 531.758L108.769 531.758L108.611 531.758L108.452 531.758L108.29 531.758L108.127 531.758L107.963 531.758L107.796 531.758L107.628 531.758L107.457 531.758L107.285 531.758L107.285 531.758L107.113 531.758L106.94 531.758L106.767 531.758L106.594 531.758L106.421 531.758L106.248 531.758L106.075 531.758L105.902 531.758L105.729 531.758L105.556 531.758L105.384 531.758L105.211 531.758L105.038 531.758L104.865 531.758L104.692 531.758L104.519 531.758L104.346 531.758L104.173 531.758L104 531.758L103.827 531.758L103.654 531.758L103.482 531.758L103.309 531.758L103.136 531.758L102.963 531.758L102.79 531.758L102.617 531.758L102.444 531.758L102.271 531.758L102.098 531.758L101.925 531.758L101.752 531.758L101.752 531.758L101.585 531.756L101.428 531.747L101.282 531.734L101.147 531.715L101.023 531.691L100.91 531.661L100.807 531.626L100.715 531.585L100.634 531.539L100.564 531.488L100.504 531.431L100.456 531.369L100.418 531.302L100.391 531.229L100.375 531.15L100.369 531.067L100.375 530.978L100.391 530.883L100.418 530.783L100.456 530.678L100.504 530.567L100.564 530.451L100.634 530.329L100.715 530.202L100.807 530.07L100.91 529.932L101.023 529.789L101.147 529.64L101.282 529.486L101.428 529.327L101.585 529.162L101.752 528.992L101.752 528.992L101.927 528.817L102.106 528.639L102.287 528.457L102.473 528.271L102.662 528.082L102.855 527.89L103.051 527.693L103.251 527.493L103.455 527.29L103.662 527.083L103.872 526.872L104.087 526.658L104.305 526.44L104.526 526.218L104.751 525.993L104.98 525.764L105.212 525.532L105.448 525.296L105.688 525.056L105.931 524.813L106.178 524.566L106.428 524.316L106.682 524.062L106.94 523.805L107.201 523.543L107.466 523.279L107.734 523.01L108.006 522.738L108.281 522.463L108.561 522.184L108.843 521.901L109.13 521.614L109.13 521.614L109.417 521.327L109.703 521.042L109.986 520.758L110.268 520.476L110.548 520.196L110.826 519.918L111.103 519.641L111.378 519.367L111.65 519.094L111.922 518.823L112.191 518.554L112.458 518.286L112.724 518.02L112.988 517.757L113.25 517.494L113.51 517.234L113.769 516.976L114.025 516.719L114.28 516.464L114.533 516.211L114.784 515.96L115.034 515.71L115.281 515.463L115.527 515.217L115.771 514.973L116.014 514.731L116.254 514.49L116.493 514.252L116.73 514.015L116.965 513.78L117.198 513.546L117.429 513.315L117.429 513.315L117.653 513.084L117.862 512.854L118.056 512.623L118.236 512.393L118.402 512.162L118.553 511.932L118.69 511.701L118.813 511.471L118.921 511.24L119.014 511.01L119.093 510.779L119.158 510.549L119.209 510.318L119.245 510.087L119.266 509.857L119.274 509.626L119.266 509.396L119.245 509.165L119.209 508.935L119.158 508.704L119.093 508.474L119.014 508.243L118.921 508.013L118.813 507.782L118.69 507.552L118.553 507.321L118.402 507.09L118.236 506.86L118.056 506.629L117.862 506.399L117.653 506.168L117.429 505.938L117.429 505.938L117.198 505.706L116.965 505.473L116.73 505.238L116.493 505.001L116.254 504.763L116.014 504.522L115.771 504.28L115.527 504.036L115.281 503.79L115.034 503.542L114.784 503.293L114.533 503.042L114.28 502.789L114.025 502.534L113.769 502.277L113.51 502.019L113.25 501.758L112.988 501.496L112.724 501.232L112.458 500.967L112.191 500.699L111.922 500.43L111.65 500.159L111.378 499.886L111.103 499.611L110.826 499.335L110.548 499.057L110.268 498.777L109.986 498.495L109.703 498.211L109.417 497.926L109.13 497.638L109.13 497.638L108.843 497.352L108.561 497.069L108.281 496.79L108.006 496.514L107.734 496.242L107.466 495.974L107.201 495.709L106.94 495.448L106.682 495.191L106.428 494.937L106.178 494.686L105.931 494.44L105.688 494.196L105.448 493.957L105.212 493.721L104.98 493.489L104.751 493.26L104.526 493.035L104.305 492.813L104.087 492.595L103.872 492.381L103.662 492.17L103.455 491.963L103.251 491.759L103.051 491.56L102.855 491.363L102.662 491.171L102.473 490.981L102.287 490.796L102.106 490.614L101.927 490.436L101.752 490.261L101.752 490.261L101.585 490.091L101.428 489.926L101.282 489.767L101.147 489.613L101.023 489.464L100.91 489.321L100.807 489.183L100.715 489.051L100.634 488.924L100.564 488.802L100.504 488.686L100.456 488.575L100.418 488.47L100.391 488.37L100.375 488.275L100.369 488.186L100.375 488.102L100.391 488.024L100.418 487.951L100.456 487.884L100.504 487.821L100.564 487.765L100.634 487.713L100.715 487.667L100.807 487.627L100.91 487.592L101.023 487.562L101.147 487.538L101.282 487.519L101.428 487.505L101.585 487.497L101.752 487.494L101.752 487.494L101.925 487.494L102.098 487.494L102.271 487.494L102.444 487.494L102.617 487.494L102.79 487.494L102.963 487.494L103.136 487.494L103.309 487.494L103.482 487.494L103.654 487.494L103.827 487.494L104 487.494L104.173 487.494L104.346 487.494L104.519 487.494L104.692 487.494L104.865 487.494L105.038 487.494L105.211 487.494L105.384 487.494L105.556 487.494L105.729 487.494L105.902 487.494L106.075 487.494L106.248 487.494L106.421 487.494L106.594 487.494L106.767 487.494L106.94 487.494L107.113 487.494L107.285 487.494L107.285 487.494L107.457 487.494L107.628 487.494L107.796 487.494L107.963 487.494L108.127 487.494L108.29 487.494L108.452 487.494L108.611 487.494L108.769 487.494L108.924 487.494L109.078 487.494L109.231 487.494L109.381 487.494L109.53 487.494L109.676 487.494L109.821 487.494L109.965 487.494L110.106 487.494L110.246 487.494L110.383 487.494L110.519 487.494L110.654 487.494L110.786 487.494L110.916 487.494L111.045 487.494L111.172 487.494L111.297 487.494L111.421 487.494L111.542 487.494L111.662 487.494L111.78 487.494L111.896 487.494L111.896 487.494L112.012 487.496L112.127 487.502L112.242 487.511L112.357 487.523L112.473 487.539L112.588 487.559L112.703 487.583L112.818 487.61L112.934 487.64L113.049 487.675L113.164 487.712L113.28 487.754L113.395 487.799L113.51 487.847L113.625 487.9L113.741 487.956L113.856 488.015L113.971 488.078L114.086 488.145L114.202 488.215L114.317 488.289L114.432 488.366L114.548 488.447L114.663 488.532L114.778 488.62L114.893 488.712L115.009 488.807L115.124 488.907L115.239 489.009L115.354 489.115L115.47 489.225L115.585 489.339L115.585 489.339L115.7 489.454L115.815 489.569L115.931 489.685L116.046 489.8L116.161 489.915L116.277 490.03L116.392 490.146L116.507 490.261L116.622 490.376L116.738 490.491L116.853 490.607L116.968 490.722L117.083 490.837L117.199 490.953L117.314 491.068L117.429 491.183L117.545 491.298L117.66 491.414L117.775 491.529L117.89 491.644L118.006 491.759L118.121 491.875L118.236 491.99L118.351 492.105L118.467 492.221L118.582 492.336L118.697 492.451L118.813 492.566L118.928 492.682L119.043 492.797L119.158 492.912L119.274 493.027L119.274 493.027L119.391 493.145L119.511 493.265L119.636 493.389L119.763 493.517L119.895 493.649L120.03 493.784L120.169 493.923L120.311 494.065L120.457 494.211L120.606 494.36L120.759 494.513L120.916 494.67L121.076 494.83L121.24 494.994L121.408 495.162L121.579 495.333L121.754 495.508L121.932 495.686L122.114 495.868L122.299 496.053L122.489 496.242L122.681 496.435L122.878 496.631L123.078 496.831L123.281 497.035L123.488 497.242L123.699 497.453L123.913 497.667L124.131 497.885L124.353 498.107L124.578 498.332L124.807 498.56L124.807 498.56L125.037 498.784L125.268 498.993L125.498 499.187L125.729 499.367L125.959 499.533L126.19 499.684L126.42 499.821L126.651 499.944L126.881 500.052L127.112 500.145L127.343 500.225L127.573 500.289L127.804 500.34L128.034 500.376L128.265 500.398L128.495 500.405L128.726 500.398L128.956 500.376L129.187 500.34L129.417 500.289L129.648 500.225L129.878 500.145L130.109 500.052L130.34 499.944L130.57 499.821L130.801 499.684L131.031 499.533L131.262 499.367L131.492 499.187L131.723 498.993L131.953 498.784L132.184 498.56L132.184 498.56L132.413 498.332L132.638 498.107L132.859 497.885L133.077 497.667L133.292 497.453L133.502 497.242L133.709 497.035L133.913 496.831L134.113 496.631L134.309 496.435L134.502 496.242L134.691 496.053L134.877 495.868L135.058 495.686L135.237 495.508L135.411 495.333L135.583 495.162L135.75 494.994L135.914 494.83L136.074 494.67L136.231 494.513L136.384 494.36L136.534 494.211L136.679 494.065L136.822 493.923L136.96 493.784L137.095 493.649L137.227 493.517L137.355 493.389L137.479 493.265L137.6 493.145L137.717 493.027L137.717 493.027L137.832 492.912L137.947 492.797L138.063 492.682L138.178 492.566L138.293 492.451L138.408 492.336L138.524 492.221L138.639 492.105L138.754 491.99L138.87 491.875L138.985 491.759L139.1 491.644L139.215 491.529L139.331 491.414L139.446 491.298L139.561 491.183L139.676 491.068L139.792 490.953L139.907 490.837L140.022 490.722L140.138 490.607L140.253 490.491L140.368 490.376L140.483 490.261L140.599 490.146L140.714 490.03L140.829 489.915L140.944 489.8L141.06 489.685L141.175 489.569L141.29 489.454L141.405 489.339L141.405 489.339L141.521 489.225L141.636 489.115L141.751 489.009L141.867 488.907L141.982 488.807L142.097 488.712L142.212 488.62L142.328 488.532L142.443 488.447L142.558 488.366L142.673 488.289L142.789 488.215L142.904 488.145L143.019 488.078L143.135 488.015L143.25 487.956L143.365 487.9L143.48 487.847L143.596 487.799L143.711 487.754L143.826 487.712L143.941 487.675L144.057 487.64L144.172 487.61L144.287 487.583L144.403 487.559L144.518 487.539L144.633 487.523L144.748 487.511L144.864 487.502L144.979 487.496L145.094 487.494L145.094 487.494L145.21 487.494L145.328 487.494L145.448 487.494L145.57 487.494L145.693 487.494L145.818 487.494L145.945 487.494L146.074 487.494L146.205 487.494L146.337 487.494L146.471 487.494L146.607 487.494L146.745 487.494L146.884 487.494L147.026 487.494L147.169 487.494L147.314 487.494L147.461 487.494L147.609 487.494L147.76 487.494L147.912 487.494L148.066 487.494L148.222 487.494L148.379 487.494L148.539 487.494L148.7 487.494L148.863 487.494L149.028 487.494L149.194 487.494L149.363 487.494L149.533 487.494L149.705 487.494L149.705 487.494L149.878 487.494L150.051 487.494L150.224 487.494L150.397 487.494L150.569 487.494L150.742 487.494L150.915 487.494L151.088 487.494L151.261 487.494L151.434 487.494L151.607 487.494L151.78 487.494L151.953 487.494L152.126 487.494L152.299 487.494L152.471 487.494L152.644 487.494L152.817 487.494L152.99 487.494L153.163 487.494L153.336 487.494L153.509 487.494L153.682 487.494L153.855 487.494L154.028 487.494L154.201 487.494L154.373 487.494L154.546 487.494L154.719 487.494L154.892 487.494L155.065 487.494L155.238 487.494L155.238 487.494L155.405 487.497L155.562 487.505L155.708 487.519L155.843 487.538L155.967 487.562L156.081 487.592L156.184 487.627L156.275 487.667L156.356 487.713L156.427 487.765L156.486 487.821L156.535 487.884L156.573 487.951L156.6 488.024L156.616 488.102L156.621 488.186L156.616 488.275L156.6 488.37L156.573 488.47L156.535 488.575L156.486 488.686L156.427 488.802L156.356 488.924L156.275 489.051L156.184 489.183L156.081 489.321L155.967 489.464L155.843 489.613L155.708 489.767L155.562 489.926L155.405 490.091L155.238 490.261L155.238 490.261L155.062 490.437L154.881 490.618L154.695 490.804L154.503 490.996L154.306 491.193L154.103 491.396L153.895 491.604L153.682 491.817L153.463 492.036L153.239 492.26L153.009 492.49L152.774 492.725L152.534 492.965L152.288 493.211L152.036 493.462L151.78 493.719L151.518 493.981L151.25 494.249L150.977 494.521L150.699 494.8L150.415 495.083L150.126 495.372L149.832 495.667L149.532 495.967L149.227 496.272L148.916 496.583L148.6 496.899L148.278 497.22L147.952 497.547L147.619 497.88L147.282 498.217L146.938 498.56"/>
<path class="l5" d="M529.636 191.48L531.48 191.48L531.48 193.325L529.636 193.325L529.636 191.48z"/>
<path class="l5" d="M809.974 198.858L811.818 198.858L811.818 200.702L809.974 200.702L809.974 198.858z"/>
<path class="l5" d="M861.615 339.026L863.459 339.026L863.459 340.871L861.615 340.871L861.615 339.026z"/>
<path class="l5" d="M728.823 198.858L730.668 198.858L730.668 200.702L728.823 200.702L728.823 198.858z"/>
<path class="l5" d="M463.24 294.762L465.085 294.762L465.085 296.607L463.24 296.607L463.24 294.762z"/>
<path class="l5" d="M647.673 309.517L649.517 309.517L649.517 311.361L647.673 311.361L647.673 309.517z"/>
<path class="l5" d="M529.636 339.026L531.48 339.026L531.48 340.871L529.636 340.871L529.636 339.026z"/>
<path class="l5" d="M528.714 234.822L532.403 234.822L532.403 238.511L528.714 238.511L528.714 234.822z"/>
<path class="l5" d="M462.318 264.331L466.007 264.331L466.007 268.02L462.318 268.02L462.318 264.331z"/>
<path class="l5" d="M595.11 279.086L598.798 279.086L598.798 282.774L595.11 282.774L595.11 279.086z"/>
<path class="l5" d="M462.318 293.84L466.007 293.84L466.007 297.529L462.318 297.529L462.318 293.84z"/>
<path class="l5" d="M528.714 323.349L532.403 323.349L532.403 327.038L528.714 327.038L528.714 323.349z"/>
<path class="l5" d="M558.223 323.349L561.912 323.349L561.912 327.038L558.223 327.038L558.223 323.349z"/>
<path class="l5" d="M558.223 234.822L561.912 234.822L561.912 238.511L558.223 238.511L558.223 234.822z"/>
<path class="l5" d="M528.714 190.558L532.403 190.558L532.403 194.247L528.714 194.247L528.714 190.558z"/>
<path class="l5" d="M528.714 234.822L532.403 234.822L532.403 238.511L528.714 238.511L528.714 234.822z"/>
<path class="l5" d="M292.64 271.708L296.329 271.708L296.329 275.397L292.64 275.397L292.64 271.708z"/>
<path class="l5" d="M233.622 220.067L237.31 220.067L237.31 223.756L233.622 223.756L233.622 220.067z"/>
<path class="l5" d="M233.622 315.972L237.31 315.972L237.31 319.661L233.622 319.661L233.622 315.972z"/>
<path class="l5" d="M308.317 272.631L310.161 272.631L310.161 274.475L308.317 274.475L308.317 272.631z"/>
<path class="l5" d="M839.483 228.367L841.327 228.367L841.327 230.211L839.483 230.211L839.483 228.367z"/>
<path class="l5" d="M559.145 220.989L560.99 220.989L560.99 222.834L559.145 222.834L559.145 220.989z"/>
<path class="l5" d="M234.544 339.026L236.388 339.026L236.388 340.871L234.544 340.871L234.544 339.026z"/>
<path class="l5" d="M559.145 339.026L560.99 339.026L560.99 340.871L559.145 340.871L559.145 339.026z"/>
<path class="l5" d="M699.314 220.989L701.158 220.989L701.158 222.834L699.314 222.834L699.314 220.989z"/>
<path class="l5" d="M780.464 220.989L782.309 220.989L782.309 222.834L780.464 222.834L780.464 220.989z"/>
<path class="l5" d="M62.0995 185.025L65.7882 185.025"/>
<path class="l5" d="M62.0995 185.025L59.333 181.336L52.8779 181.336L55.6444 185.025L52.8779 188.714L59.333 188.714L62.0995 185.025"/>
<path class="l5" d="M64.866 184.103L66.7103 184.103L66.7103 185.947L64.866 185.947L64.866 184.103z"/>
<path class="l5" d="M63.4827 258.798L65.7882 258.798"/>
<path class="l5" d="M55.6444 262.487L52.8779 258.798L55.6444 255.109L60.7163 255.109L63.4827 258.798L60.7163 262.487L55.6444 262.487"/>
<path class="l5" d="M64.866 257.876L66.7103 257.876L66.7103 259.72L64.866 259.72L64.866 257.876z"/>
<path class="l5" d="M936.31 280.93L942.765 280.93"/>
<path class="l5" d="M949.22 280.93L946.454 277.241L939.998 277.241L942.765 280.93L939.998 284.619L946.454 284.619L949.22 280.93"/>
<path class="l5" d="M935.388 280.008L937.232 280.008L937.232 281.852L935.388 281.852L935.388 280.008z"/>
<path class="l5" d="M209.646 199.78L213.334 199.78"/>
<path class="l5" d="M209.646 199.78L206.879 196.091L200.424 196.091L203.19 199.78L200.424 203.468L206.879 203.468L209.646 199.78"/>
<path class="l5" d="M212.412 198.858L214.256 198.858L214.256 200.702L212.412 200.702L212.412 198.858z"/>
<path class="l5" d="M63.4827 273.553L65.7882 273.553"/>
<path class="l5" d="M55.6444 277.241L52.8779 273.553L55.6444 269.864L60.7163 269.864L63.4827 273.553L60.7163 277.241L55.6444 277.241"/>
<path class="l5" d="M64.866 272.631L66.7103 272.631L66.7103 274.475L64.866 274.475L64.866 272.631z"/>
<path class="l5" d="M63.4827 288.307L65.7882 288.307"/>
<path class="l5" d="M55.6444 291.996L52.8779 288.307L55.6444 284.619L60.7163 284.619L63.4827 288.307L60.7163 291.996L55.6444 291.996"/>
<path class="l5" d="M64.866 287.385L66.7103 287.385L66.7103 289.229L64.866 289.229L64.866 287.385z"/>
<path class="l5" d="M63.4827 303.062L65.7882 303.062"/>
<path class="l5" d="M55.6444 306.751L52.8779 303.062L55.6444 299.373L60.7163 299.373L63.4827 303.062L60.7163 306.751L55.6444 306.751"/>
<path class="l5" d="M64.866 302.14L66.7103 302.14L66.7103 303.984L64.866 303.984L64.866 302.14z"/>
<path class="l5" d="M79.6206 257.876L81.4649 257.876L81.4649 259.72L79.6206 259.72L79.6206 257.876z"/>
<path class="l5" d="M79.6206 272.631L81.4649 272.631L81.4649 274.475L79.6206 274.475L79.6206 272.631z"/>
<path class="l5" d="M79.6206 287.385L81.4649 287.385L81.4649 289.229L79.6206 289.229L79.6206 287.385z"/>
<path class="l5" d="M79.6206 302.14L81.4649 302.14L81.4649 303.984L79.6206 303.984L79.6206 302.14z"/>
<path class="l5" d="M86.9979 184.103L88.8422 184.103L88.8422 185.947L86.9979 185.947L86.9979 184.103z"/>
<path class="l5" d="M62.0995 162.893L65.7882 162.893"/>
<path class="l5" d="M62.0995 162.893L59.333 159.205L52.8779 159.205L55.6444 162.893L52.8779 166.582L59.333 166.582L62.0995 162.893"/>
<path class="l5" d="M64.866 161.971L66.7103 161.971L66.7103 163.815L64.866 163.815L64.866 161.971z"/>
<path class="l5" d="M86.9979 161.971L88.8422 161.971L88.8422 163.815L86.9979 163.815L86.9979 161.971z"/>
<path class="l5" d="M438.342 266.175L442.031 266.175"/>
<path class="l5" d="M438.342 266.175L435.575 262.487L429.12 262.487L431.887 266.175L429.12 269.864L435.575 269.864L438.342 266.175"/>
<path class="l5" d="M441.108 265.253L442.953 265.253L442.953 267.098L441.108 267.098L441.108 265.253z"/>
<path class="l5" d="M699.314 346.404L701.158 346.404L701.158 348.248L699.314 348.248L699.314 346.404z"/>
<path class="l5" d="M714.069 346.404L715.913 346.404L715.913 348.248L714.069 348.248L714.069 346.404z"/>
<path class="l5" d="M728.823 346.404L730.668 346.404L730.668 348.248L728.823 348.248L728.823 346.404z"/>
<path class="l5" d="M743.578 346.404L745.422 346.404L745.422 348.248L743.578 348.248L743.578 346.404z"/>
<path class="l5" d="M758.332 346.404L760.177 346.404L760.177 348.248L758.332 348.248L758.332 346.404z"/>
<path class="l5" d="M773.087 346.404L774.931 346.404L774.931 348.248L773.087 348.248L773.087 346.404z"/>
<path class="l5" d="M787.842 346.404L789.686 346.404L789.686 348.248L787.842 348.248L787.842 346.404z"/>
<path class="l5" d="M802.596 346.404L804.441 346.404L804.441 348.248L802.596 348.248L802.596 346.404z"/>
<path class="l5" d="M817.351 346.404L819.195 346.404L819.195 348.248L817.351 348.248L817.351 346.404z"/>
<path class="l5" d="M832.105 346.404L833.95 346.404L833.95 348.248L832.105 348.248L832.105 346.404z"/>
<path class="l6" d="M320.305 509.626L906.801 509.626"/>
<path class="l6" d="M36.2789 509.626L84.2314 509.626"/>
<path class="l7" d="M788.764 310.439L788.764 325.194"/>
<path class="l7" d="M774.009 310.439L774.009 325.194"/>
<path class="l7" d="M818.273 310.439L818.273 325.194"/>
<path class="l7" d="M833.028 310.439L833.028 325.194"/>
<path class="l7" d="M803.518 310.439L803.518 325.194"/>
<path class="l7" d="M670.727 280.93L685.482 280.93"/>
<path class="l7" d="M810.896 244.043L810.896 258.798"/>
<path class="l7" d="M729.745 244.043L729.745 258.798"/>
<path class="l7" d="M877.291 280.93L892.046 280.93"/>
<path class="l7" d="M759.255 310.439L759.255 325.194"/>
<path class="l7" d="M744.5 310.439L744.5 325.194"/>
<path class="l7" d="M729.745 310.439L729.745 325.194"/>
<path class="l7" d="M714.991 310.439L714.991 325.194"/>
<path class="l7" d="M700.236 310.439L700.236 325.194"/>
<path class="l7" d="M862.537 310.439L862.537 325.194"/>
<path class="l7" d="M700.236 244.043L700.236 258.798"/>
<path class="l7" d="M781.386 244.043L781.386 258.798"/>
<path class="l7" d="M840.405 244.043L840.405 258.798"/>
<path class="l7" d="M530.558 236.666L530.558 251.421"/>
<path class="l7" d="M464.162 266.175L478.917 266.175"/>
<path class="l7" d="M582.199 280.93L596.954 280.93"/>
<path class="l7" d="M464.162 295.685L478.917 295.685"/>
<path class="l7" d="M530.558 310.439L530.558 325.194"/>
<path class="l7" d="M560.067 310.439L560.067 325.194"/>
<path class="l7" d="M560.067 236.666L560.067 251.421"/>
<path class="l7" d="M279.73 273.553L294.485 273.553"/>
<path class="l7" d="M235.466 221.912L235.466 236.666"/>
<path class="l7" d="M235.466 303.062L235.466 317.817"/>
<path class="l1" d="M781.386 221.912L781.386 244.043"/>
<path class="l1" d="M700.236 221.912L700.236 244.043"/>
<path class="l1" d="M530.558 325.194L530.558 339.948"/>
<path class="l1" d="M235.466 199.78L235.466 221.912"/>
<path class="l1" d="M840.405 229.289L840.405 244.043"/>
<path class="l1" d="M560.067 221.912L560.067 236.666"/>
<path class="l1" d="M235.466 317.817L235.466 339.948"/>
<path class="l1" d="M560.067 325.194L560.067 339.948"/>
<path class="l1" d="M892.046 280.93L936.31 280.93"/>
<path class="l1" d="M810.896 199.78L810.896 244.043"/>
<path class="l1" d="M729.745 199.78L729.745 244.043"/>
<path class="l1" d="M213.334 199.78L235.466 199.78"/>
<path class="l1" d="M65.7882 258.798L80.5428 258.798"/>
<path class="l1" d="M65.7882 273.553L80.5428 273.553"/>
<path class="l1" d="M65.7882 288.307L80.5428 288.307"/>
<path class="l1" d="M65.7882 303.062L80.5428 303.062"/>
<path class="l1" d="M65.7882 185.025L87.9201 185.025"/>
<path class="l1" d="M65.7882 162.893L87.9201 162.893"/>
<path class="l1" d="M596.954 280.93L670.727 280.93"/>
<path class="l1" d="M648.595 280.93L648.595 310.439"/>
<path class="l1" d="M442.031 266.175L464.162 266.175"/>
<path class="l1" d="M700.236 325.194L700.236 347.326"/>
<path class="l1" d="M714.991 325.194L714.991 347.326"/>
<path class="l1" d="M729.745 325.194L729.745 347.326"/>
<path class="l1" d="M744.5 325.194L744.5 347.326"/>
<path class="l1" d="M759.255 325.194L759.255 347.326"/>
<path class="l1" d="M774.009 325.194L774.009 347.326"/>
<path class="l1" d="M788.764 325.194L788.764 347.326"/>
<path class="l1" d="M803.518 325.194L803.518 347.326"/>
<path class="l1" d="M818.273 325.194L818.273 347.326"/>
<path class="l1" d="M833.028 325.194L833.028 347.326"/>
<path class="l1" d="M862.537 325.194L862.537 339.948"/>
<path class="l1" d="M294.485 273.553L309.239 273.553"/>
<circle class="l1" cx="648.595" cy="280.93" r="2.7296"/>
</svg>
